<svg id="Layer_1" viewBox="0 0 24 24" xmlns="http://www.w3.org/2000/svg" data-name="Layer 1"><path d="m21.498 6.577c.001-.026.002-.051.002-.077v-3.5c0-.829-.672-1.5-1.5-1.5s-1.5.671-1.5 1.5v1.278c-2.254-1.533-5.123-3.278-6.5-3.278-2.08 0-7.561 3.979-9.19 5.199-.132.098-.237.228-.307.376-.062.131-1.503 3.261-1.503 8.425 0 2.133.484 6.9.505 7.102.053.51.482.898.995.898h6c.297 0 .567-.141.769-.36.411-.448.141-1.203.141-1.203-.153-.771-.409-2.061-.409-3.437 0-1.519.199-2.908.328-3.647.559-.15 1.526-.353 2.672-.353 1.138 0 2.109.204 2.672.354.129.741.328 2.13.328 3.646 0 1.378-.256 2.667-.409 3.438 0 0-.269.722.141 1.202.193.226.472.36.769.36h6c.513 0 .942-.388.995-.898.021-.202.505-4.977.505-7.102 0-5.143-1.43-8.269-1.502-8.423z"/></svg>